<svg xmlns="http://www.w3.org/2000/svg" width="29.765" height="22" viewBox="0 0 29.765 22"><g transform="translate(0.438 -64.008)"><path d="M3.9,21.822a.605.605,0,0,1,0-.864L20.757,4.346l.03-.029,4.2-4.138a.627.627,0,0,1,.877,0,.605.605,0,0,1,0,.864L22.236,4.616A30.45,30.45,0,0,1,29.617,10.6a.6.6,0,0,1,0,.79c-.287.334-7.1,8.161-14.736,8.161a15.567,15.567,0,0,1-6.374-1.41l-3.73,3.676a.628.628,0,0,1-.877,0Zm10.981-3.488c6.133,0,11.95-5.756,13.429-7.334a29.489,29.489,0,0,0-6.987-5.484L18.8,8a4.8,4.8,0,0,1,1.042,3,4.977,4.977,0,0,1-8,3.862L9.451,17.217A14.2,14.2,0,0,0,14.882,18.333Zm0-3.667A3.7,3.7,0,0,0,18.6,11a3.6,3.6,0,0,0-.688-2.125l-5.189,5.114A3.726,3.726,0,0,0,14.882,14.666Zm-9.082,2A22.862,22.862,0,0,1,.112,11.349.6.6,0,0,1,.146,10.6c.287-.334,7.1-8.161,14.736-8.161a12.974,12.974,0,0,1,4.069.7.612.612,0,1,1-.4,1.157,11.761,11.761,0,0,0-3.673-.639C8.705,3.666,2.849,9.5,1.421,11.033a22.544,22.544,0,0,0,5.064,4.614.6.6,0,0,1,.174.846.622.622,0,0,1-.858.172Zm4.208-4.813A4.718,4.718,0,0,1,9.922,11,4.93,4.93,0,0,1,14.882,6.11a5.04,5.04,0,0,1,.864.084.611.611,0,1,1-.216,1.2,3.762,3.762,0,0,0-.649-.065A3.7,3.7,0,0,0,11.162,11a3.492,3.492,0,0,0,.067.639.613.613,0,0,1-.5.708.558.558,0,0,1-.109.01A.618.618,0,0,1,10.008,11.851Z" transform="translate(-0.438 64.008)"/></g></svg>