<svg xmlns="http://www.w3.org/2000/svg" width="20" height="20" viewBox="0 0 20 20"><g transform="translate(0 -0.121)"><path d="M2.148,20A2.151,2.151,0,0,1,0,17.851V7.221A2.151,2.151,0,0,1,2.015,5.076L1.74,4.326A1.368,1.368,0,0,1,2.556,2.57L9.387.083a1.367,1.367,0,0,1,1.754.822l.486,1.352h3.764a1.369,1.369,0,0,1,1.367,1.368V5.073a2.151,2.151,0,0,1,2.07,2.147V9.58A1.37,1.37,0,0,1,20,10.933V14.06a1.37,1.37,0,0,1-1.172,1.354v2.437A2.151,2.151,0,0,1,16.68,20ZM1.172,7.221v10.63a.978.978,0,0,0,.977.977H16.68a.978.978,0,0,0,.977-.977V15.428H15.508a2.931,2.931,0,0,1,0-5.862h2.148V7.221a.978.978,0,0,0-.977-.977H2.148A.978.978,0,0,0,1.172,7.221ZM13.75,12.5a1.76,1.76,0,0,0,1.758,1.759h3.125a.2.2,0,0,0,.2-.2V10.933a.2.2,0,0,0-.2-.2H15.508A1.76,1.76,0,0,0,13.75,12.5ZM9.787,1.185,2.957,3.672a.2.2,0,0,0-.117.251l.42,1.148H8.75V3.625a1.369,1.369,0,0,1,1.367-1.368h.264L10.038,1.3a.194.194,0,0,0-.1-.111.2.2,0,0,0-.083-.019A.194.194,0,0,0,9.787,1.185Zm.135,2.44V5.071h5.664V3.625a.2.2,0,0,0-.2-.2H10.117A.2.2,0,0,0,9.922,3.625Zm5,8.871a.586.586,0,1,1,.586.586A.586.586,0,0,1,14.922,12.5Z" transform="translate(0 0.121)"/></g></svg>