<svg xmlns="http://www.w3.org/2000/svg" width="512" height="355" viewBox="0 0 512 355">
  <g id="email" transform="translate(-9.353 -24.168)">
    <path id="Union_1" data-name="Union 1" d="M50.409,355A50.482,50.482,0,0,1,0,304.553V50.447A50.482,50.482,0,0,1,50.409,0H461.6A50.476,50.476,0,0,1,512,50.447V304.553A50.476,50.476,0,0,1,461.6,355Zm0-19.278H461.6a31.021,31.021,0,0,0,17.876-5.661l-143.3-163.385L262.39,231.844a9.7,9.7,0,0,1-12.767-.022l-73.4-64.841L32.938,330.342A31.023,31.023,0,0,0,50.409,335.722ZM19.265,50.447V304.553a31.164,31.164,0,0,0,1.71,10.185L161.767,154.217,24.586,33.04A31.075,31.075,0,0,0,19.265,50.447ZM491.207,314.2a31.2,31.2,0,0,0,1.528-9.642V50.447a31.077,31.077,0,0,0-5.3-17.384L350.623,153.907ZM256,211.751,471.917,21.04A31.1,31.1,0,0,0,461.6,19.278H50.409a31.1,31.1,0,0,0-10.3,1.754Z" transform="translate(9.353 24.168)"/>
  </g>
</svg>
