<svg xmlns="http://www.w3.org/2000/svg" width="512" height="512" viewBox="0 0 512 512">
  <g id="excel" transform="translate(-17.067 -0.001)">
    <g id="Group_2" data-name="Group 2" transform="translate(17.067 0.001)">
      <g id="Group_1" data-name="Group 1">
        <path id="Path_5" data-name="Path 5" d="M501.638,42.668H346.21V8.535a8.289,8.289,0,0,0-3.169-6.458,9.579,9.579,0,0,0-7.3-1.983L40.5,40.614C27.138,42.451,17.067,53.339,17.067,65.943V446.059c0,12.6,10.071,23.492,23.437,25.329l295.232,40.521a9.641,9.641,0,0,0,7.3-1.983,8.289,8.289,0,0,0,3.169-6.458V469.335H501.638c15.125,0,27.429-11.483,27.429-25.6V68.268C529.067,54.151,516.764,42.668,501.638,42.668ZM327.925,51.2V493.586L43.166,454.505a8.8,8.8,0,0,1-7.813-8.446V65.943A8.8,8.8,0,0,1,43.166,57.5L327.925,18.414Zm18.285,68.267h45.715v17.067H346.21Zm0,85.333h45.715v17.067H346.21Zm0,85.334h45.715V307.2H346.21Zm0,85.333h45.715v17.067H346.21Zm164.571,68.267c0,4.7-4.1,8.533-9.142,8.533H346.21V409.6H455.924c10.08,0,18.286-7.654,18.286-17.067V375.466c0-9.413-8.2-17.067-18.286-17.067H346.21V324.266H455.924c10.08,0,18.286-7.654,18.286-17.067V290.132c0-9.413-8.2-17.067-18.286-17.067H346.21V238.933H455.924c10.08,0,18.286-7.654,18.286-17.067V204.8c0-9.412-8.2-17.067-18.286-17.067H346.21V153.6H455.924c10.08,0,18.286-7.654,18.286-17.067V119.465c0-9.413-8.2-17.067-18.286-17.067H346.21V59.735H501.638c5.044,0,9.142,3.829,9.142,8.533V443.734Zm-100.571-51.2V375.467h45.715l.009,17.067Zm0-85.334V290.133h45.715l.009,17.067Zm0-85.333V204.8h45.715l.009,17.067Zm0-85.333V119.468h45.715l.009,17.067Z" transform="translate(-17.067 -0.001)"/>
        <path id="Path_6" data-name="Path 6" d="M156.1,256l-51.752,62.842a8.531,8.531,0,1,0,13.167,10.85l49.636-60.272,56.664,68.806a8.531,8.531,0,1,0,13.167-10.851L178.206,256l58.779-71.375a8.53,8.53,0,1,0-13.166-10.85l-56.664,68.806L117.519,182.31a8.53,8.53,0,1,0-13.166,10.849Z" transform="translate(-8.534 -0.001)"/>
      </g>
    </g>
  </g>
</svg>
