<svg xmlns="http://www.w3.org/2000/svg" width="13.678" height="14.921" viewBox="0 0 13.678 14.921"><defs><style>.a{fill:#900;}</style></defs><path class="a" d="M11.569,14.921H4.109A3.112,3.112,0,0,1,1,11.813v-8.7A3.112,3.112,0,0,1,4.109,0h7.461a3.112,3.112,0,0,1,3.109,3.109v8.7A3.112,3.112,0,0,1,11.569,14.921ZM4.109,1.243A1.865,1.865,0,0,0,2.243,3.109v8.7a1.865,1.865,0,0,0,1.865,1.865h7.461a1.865,1.865,0,0,0,1.865-1.865v-8.7a1.865,1.865,0,0,0-1.865-1.865Zm6.217,4.974H5.352a1.865,1.865,0,0,1,0-3.73h4.974a1.865,1.865,0,1,1,0,3.73ZM5.352,3.73a.622.622,0,1,0,0,1.243h4.974a.622.622,0,1,0,0-1.243ZM4.109,8.082A.622.622,0,1,0,4.73,8.7.622.622,0,0,0,4.109,8.082Zm2.487,0a.622.622,0,1,0,.622.622A.622.622,0,0,0,6.6,8.082Zm2.487,0A.622.622,0,1,0,9.7,8.7.622.622,0,0,0,9.082,8.082ZM4.109,10.569a.622.622,0,1,0,.622.622A.622.622,0,0,0,4.109,10.569Zm2.487,0a.622.622,0,1,0,.622.622A.622.622,0,0,0,6.6,10.569Zm4.974-2.487a.622.622,0,1,0,.622.622A.622.622,0,0,0,11.569,8.082Zm.622,3.109a.622.622,0,0,0-.622-.622H9.082a.622.622,0,0,0,0,1.243h2.487A.622.622,0,0,0,12.191,11.191Z" transform="translate(-1)"/></svg>