<svg xmlns="http://www.w3.org/2000/svg" width="512" height="512" viewBox="0 0 512 512">
  <path id="Print" d="M464.839,200.453h-58.71V50.88c0-5.269-3.582-9.541-8-9.541H113.872c-4.418,0-8,4.272-8,9.541V200.453H47.161C21.156,200.453,0,225.683,0,256.7V417.539c0,31.013,21.156,56.243,47.161,56.243h58.711V543.8c0,5.269,3.582,9.541,8,9.541H398.129c4.418,0,8-4.272,8-9.541V473.782h58.71c26.005,0,47.161-25.23,47.161-56.243V256.7c0-31.013-21.156-56.243-47.161-56.243ZM121.872,60.42H390.129V200.453H121.872ZM390.129,534.258H121.872V394.225H390.129ZM496,417.539c0,20.492-13.979,37.162-31.161,37.162h-58.71V384.685c0-5.269-3.582-9.541-8-9.541H113.872c-4.418,0-8,4.272-8,9.541V454.7H47.161C29.979,454.7,16,438.031,16,417.539V256.7c0-20.492,13.979-37.162,31.161-37.162H464.839c17.183,0,31.161,16.671,31.161,37.162ZM151.556,435.31c0-5.269,3.582-9.541,8-9.541H352.445c4.418,0,8,4.272,8,9.541s-3.582,9.541-8,9.541H159.556C155.138,444.85,151.556,440.578,151.556,435.31Zm0,57.864c0-5.269,3.582-9.541,8-9.541H352.445c4.418,0,8,4.272,8,9.541s-3.582,9.541-8,9.541H159.556C155.138,502.714,151.556,498.442,151.556,493.173Z" transform="translate(0 -41.339)"/>
</svg>
