<svg xmlns="http://www.w3.org/2000/svg" width="25.935" height="26" viewBox="0 0 25.935 26"><defs><style>.a{fill:#868686;}</style></defs><path class="a" d="M26.286,11.6A12.962,12.962,0,1,0,11.73,26.288a13.424,13.424,0,0,0,1.739.114,12.833,12.833,0,0,0,6.665-1.853A1.254,1.254,0,0,0,18.839,22.4a10.453,10.453,0,1,1,4.492-5.535,1.811,1.811,0,0,1-1.738,1.175,1.871,1.871,0,0,1-1.868-1.868V8.426a1.254,1.254,0,1,0-2.508,0v.012a6.27,6.27,0,1,0,.452,9.633,4.367,4.367,0,0,0,3.924,2.477A4.32,4.32,0,0,0,25.7,17.685,12.987,12.987,0,0,0,26.286,11.6ZM13.455,17.2a3.762,3.762,0,1,1,3.762-3.762A3.762,3.762,0,0,1,13.455,17.2Z" transform="translate(-0.481 -0.401)"/></svg>