<svg xmlns="http://www.w3.org/2000/svg" width="30" height="30" viewBox="0 0 30 30">
  <g id="Logo_SAKU_square" data-name="Logo SAKU square" transform="translate(-163 -141)">
    <rect id="Rectangle_125" data-name="Rectangle 125" width="30" height="30" rx="4" transform="translate(163 141)" fill="#0058e4"/>
    <g id="SAKU_2021" data-name="SAKU 2021" transform="translate(170 145)">
      <path id="Union_1" data-name="Union 1" d="M10.7,21.586a3.06,3.06,0,0,1-1.3-1.175,4.01,4.01,0,0,1-.462-1.989V12.235l.146-.094h.668a1.032,1.032,0,0,1,.766.259,1.144,1.144,0,0,1,.242.823v5.21a2.47,2.47,0,0,0,.486,1.67,2.238,2.238,0,0,0,3,0,2.47,2.47,0,0,0,.5-1.67V12.213H16.5l-.049,6.209a4,4,0,0,1-.462,1.989,3,3,0,0,1-1.3,1.175,5,5,0,0,1-3.985,0Zm-4.848.13a2.482,2.482,0,0,1-.34-.776l-.729-1.953A2.542,2.542,0,0,0,4.082,17.9a1.467,1.467,0,0,0-1-.318H2.369L2.2,17.6v4.259H.437V12.213H2.2v3.975h.693a.637.637,0,0,0,.34-.082,1.918,1.918,0,0,0,.256-.329l1.736-2.964a2.246,2.246,0,0,1,.377-.494.992.992,0,0,1,.619-.165h.5a3.834,3.834,0,0,1,.522,0l.109.13L5.26,15.811a2.8,2.8,0,0,1-.705.828,2.978,2.978,0,0,1,.548.16,1.73,1.73,0,0,1,.729.611,3.333,3.333,0,0,1,.474.941l.753,1.964a4.139,4.139,0,0,0,.219.529,1.881,1.881,0,0,0,.219.329l.254.259a.963.963,0,0,1-.5.388,1.724,1.724,0,0,1-.668.141c-.03,0-.06,0-.09,0A.928.928,0,0,1,5.856,21.716ZM3.548,10.069A6.466,6.466,0,0,1,1.7,9.739,5.968,5.968,0,0,1,0,8.974a1.848,1.848,0,0,1,.242-.741,2.168,2.168,0,0,1,.474-.576,6.726,6.726,0,0,0,1.409.67,4.473,4.473,0,0,0,1.519.294A1.935,1.935,0,0,0,4.86,8.233,1.084,1.084,0,0,0,5.3,7.363a1.16,1.16,0,0,0-.3-.788,2.338,2.338,0,0,0-.924-.623L2.308,5.246a4.255,4.255,0,0,1-1.422-.93A2.178,2.178,0,0,1,.339,2.788,2.56,2.56,0,0,1,.766,1.353,3.128,3.128,0,0,1,1.98.365,3.968,3.968,0,0,1,3.7,0,6.658,6.658,0,0,1,5.467.235,7.852,7.852,0,0,1,6.876.752a1.767,1.767,0,0,1-.194.718,1.644,1.644,0,0,1-.437.588A7.036,7.036,0,0,0,5.03,1.588a4.8,4.8,0,0,0-1.276-.2,1.776,1.776,0,0,0-1.215.353,1.161,1.161,0,0,0-.413.847.856.856,0,0,0,.3.682,2.793,2.793,0,0,0,.827.495L5,4.458A4.822,4.822,0,0,1,6.148,5.1a2.885,2.885,0,0,1,.766.905,2.29,2.29,0,0,1,.279,1.176A2.642,2.642,0,0,1,5.576,9.692a4.853,4.853,0,0,1-1.883.379Zm11.931-.141a.945.945,0,0,1-.644-.188,1.425,1.425,0,0,1-.4-.729l-.457-1.424h-3.6L9.635,9.845H8.882a2.843,2.843,0,0,1-.45,0,2.612,2.612,0,0,1-.4-.082L7.97,9.68,11.251.189H12.77a3.822,3.822,0,0,1,.485.058L16.5,9.774a1.683,1.683,0,0,1-.473.153q-.136.013-.273.013T15.479,9.927ZM14.944,7.586ZM13.538,6.222,12.976,4.47c-.134-.412-.268-.847-.413-1.329L12.15,1.823c-.049.22-.109.467-.183.741l-.219.8c-.073.259-.145.483-.206.671l-.718,2.188Z" transform="translate(0 0)" fill="#fff"/>
    </g>
  </g>
</svg>
