<svg xmlns="http://www.w3.org/2000/svg" width="120" height="120" viewBox="0 0 120 120"><defs><style>.a{fill:#c9fdff;}.b{fill:#00808f;}.c{fill:#0597a8;}</style></defs><g transform="translate(-716 -4506)"><path class="a" d="M60,0h0a60,60,0,0,1,60,60v0a60,60,0,0,1-60,60H0a0,0,0,0,1,0,0V60A60,60,0,0,1,60,0Z" transform="translate(716 4506)"/><g transform="translate(700 4546)"><path class="b" d="M4.3,40A4.3,4.3,0,0,1,0,35.7V4.3A4.3,4.3,0,0,1,4.3,0H18.281V8.984a2.738,2.738,0,0,0,2.734,2.734h9.453V35.7a4.3,4.3,0,0,1-4.3,4.3Zm.937-10.7a1.172,1.172,0,0,0,1.172,1.172h5.681a1.172,1.172,0,0,0,0-2.344H6.406A1.172,1.172,0,0,0,5.234,29.3Zm0-6.25a1.172,1.172,0,0,0,1.172,1.172H23.594a1.172,1.172,0,0,0,0-2.344H6.406A1.172,1.172,0,0,0,5.234,23.047Zm0-6.25a1.172,1.172,0,0,0,1.172,1.172H23.594a1.172,1.172,0,1,0,0-2.344H6.406A1.172,1.172,0,0,0,5.234,16.8ZM21.016,9.375a.391.391,0,0,1-.391-.391h0V.486a4.308,4.308,0,0,1,.967.689L29.125,8.3a4.288,4.288,0,0,1,.821,1.073Z" transform="translate(61)"/></g><path class="c" d="M-566.647,31.625V4.3a4.3,4.3,0,0,1,4.3-4.3h13.984V8.985a2.737,2.737,0,0,0,2.734,2.734h9.454v1.6l-5.7,3.428a1.168,1.168,0,0,0-1.171-1.12h-17.187a1.174,1.174,0,0,0-1.173,1.172,1.174,1.174,0,0,0,1.173,1.172h16.322l-6.5,3.907h-9.82a1.174,1.174,0,0,0-1.173,1.172,1.174,1.174,0,0,0,1.173,1.172h5.919l-12.324,7.4ZM-536.7,9.375h-8.931a.391.391,0,0,1-.391-.391V.486a4.3,4.3,0,0,1,.968.689l7.533,7.127a4.264,4.264,0,0,1,.82,1.071Z" transform="translate(1327.413 4546)"/></g></svg>