<svg xmlns="http://www.w3.org/2000/svg" width="120" height="120" viewBox="0 0 120 120"><defs><style>.a{fill:#c9ffd7;}.b{fill:#07a202;}.c{fill:#096f06;}</style></defs><g transform="translate(-240 -3976)"><path class="a" d="M60,0h0a60,60,0,0,1,60,60v0a60,60,0,0,1-60,60H0a0,0,0,0,1,0,0V60A60,60,0,0,1,60,0Z" transform="translate(240 3976)"/><g transform="translate(279 4012.481)"><path class="b" d="M29.266,35.885A4.115,4.115,0,1,1,33.382,40,4.12,4.12,0,0,1,29.266,35.885Zm-18.113,0A4.115,4.115,0,1,1,15.268,40,4.12,4.12,0,0,1,11.153,35.885Zm3.26-6.542a4.355,4.355,0,0,1-4.141-3.5S7.442,9.146,7.437,9.11l-.856-4.5H2.307A2.307,2.307,0,1,1,2.307,0h6a2.525,2.525,0,0,1,2.484,2.046l.77,4.045,26.581,5.063a3.95,3.95,0,0,1,3.133,4.285L40.03,25.779a4.151,4.151,0,0,1-4.014,3.564Z" transform="translate(0 3.519)"/></g><path class="c" d="M-526.308,64.528a4.12,4.12,0,0,1-4.115-4.116,4.119,4.119,0,0,1,4.115-4.115,4.119,4.119,0,0,1,4.115,4.115A4.12,4.12,0,0,1-526.308,64.528Zm-18.113,0a4.12,4.12,0,0,1-4.115-4.116,4.119,4.119,0,0,1,4.115-4.115,4.119,4.119,0,0,1,4.115,4.115A4.12,4.12,0,0,1-544.422,64.528Zm20.748-10.658h-21.6a4.354,4.354,0,0,1-4.141-3.5l-.321-1.9,21.625-14.043,6.564,1.25a3.949,3.949,0,0,1,3.133,4.284l-1.242,10.34A4.152,4.152,0,0,1-523.674,53.87Z" transform="translate(838.689 3991.472)"/></g></svg>