<svg xmlns="http://www.w3.org/2000/svg" width="25.945" height="26" viewBox="0 0 25.945 26"><defs><style>.a{fill:#868686;}</style></defs><g transform="translate(-0.539)"><g transform="translate(0.539 0)"><path class="a" d="M25.8,19.081l-3.628-3.628a2.413,2.413,0,0,0-4.017.907,2.469,2.469,0,0,1-2.851,1.555c-2.592-.648-6.09-4.017-6.738-6.738a2.349,2.349,0,0,1,1.555-2.851,2.413,2.413,0,0,0,.907-4.017L7.4.68a2.588,2.588,0,0,0-3.5,0L1.442,3.142c-2.462,2.592.259,9.46,6.35,15.55s12.958,8.941,15.55,6.35L25.8,22.58A2.588,2.588,0,0,0,25.8,19.081Z" transform="translate(-0.539 0)"/></g></g></svg>