<svg xmlns="http://www.w3.org/2000/svg" width="120" height="120" viewBox="0 0 120 120"><defs><style>.a{fill:#fff6b9;}.b{fill:#ff833b;}.c{fill:#df5506;}</style></defs><g transform="translate(-240 -4506)"><path class="a" d="M60,0h0a60,60,0,0,1,60,60v0a60,60,0,0,1-60,60H0a0,0,0,0,1,0,0V60A60,60,0,0,1,60,0Z" transform="translate(240 4506)"/><g transform="translate(280 4546)"><path class="b" d="M16.875,40A1.172,1.172,0,0,1,15.7,38.828V36.241a16.606,16.606,0,0,1-4.144-1.723L9.725,36.352a1.172,1.172,0,0,1-1.657,0L3.648,31.932a1.172,1.172,0,0,1,0-1.657l1.834-1.834A16.6,16.6,0,0,1,3.759,24.3H1.172A1.172,1.172,0,0,1,0,23.125v-6.25A1.172,1.172,0,0,1,1.172,15.7H3.759a16.607,16.607,0,0,1,1.723-4.145L3.648,9.725a1.172,1.172,0,0,1,0-1.657L8.068,3.648a1.172,1.172,0,0,1,1.657,0l1.834,1.834A16.606,16.606,0,0,1,15.7,3.759V1.172A1.172,1.172,0,0,1,16.875,0h6.25A1.172,1.172,0,0,1,24.3,1.172V3.759a16.606,16.606,0,0,1,4.144,1.723l1.834-1.834a1.172,1.172,0,0,1,1.657,0l4.419,4.419a1.171,1.171,0,0,1,0,1.657l-1.834,1.834A16.608,16.608,0,0,1,36.241,15.7h2.587A1.172,1.172,0,0,1,40,16.875v6.25A1.172,1.172,0,0,1,38.828,24.3H36.24a16.606,16.606,0,0,1-1.723,4.145l1.834,1.834a1.172,1.172,0,0,1,0,1.657l-4.419,4.42a1.172,1.172,0,0,1-1.657,0l-1.834-1.834A16.606,16.606,0,0,1,24.3,36.241v2.587A1.172,1.172,0,0,1,23.125,40ZM9.062,20A10.937,10.937,0,1,0,20,9.063,10.95,10.95,0,0,0,9.062,20Zm6.25,5.859a1.172,1.172,0,0,1-1.172-1.172V15.313a1.172,1.172,0,0,1,1.172-1.172h3.516v2.344a1.172,1.172,0,0,0,2.344,0V14.141h3.516a1.172,1.172,0,0,1,1.172,1.172v9.375a1.172,1.172,0,0,1-1.172,1.172Z" transform="translate(0.001 0)"/></g><path class="c" d="M-548.875,40h-6.25a1.173,1.173,0,0,1-1.172-1.172V36.24a16.61,16.61,0,0,1-4.144-1.723l-1.833,1.834a1.18,1.18,0,0,1-.829.343,1.18,1.18,0,0,1-.829-.343l-4.419-4.42a1.18,1.18,0,0,1-.344-.828,1.166,1.166,0,0,1,.078-.419l7.839-4.168A11,11,0,0,0-552,30.938,10.95,10.95,0,0,0-541.063,20a10.881,10.881,0,0,0-.621-3.636l5.212-2.771a16.637,16.637,0,0,1,.713,2.111h2.588A1.173,1.173,0,0,1-532,16.875v6.25a1.173,1.173,0,0,1-1.172,1.172h-2.588a16.648,16.648,0,0,1-1.724,4.144l1.834,1.833a1.164,1.164,0,0,1,.343.829,1.163,1.163,0,0,1-.343.828l-4.419,4.42a1.168,1.168,0,0,1-.829.343,1.168,1.168,0,0,1-.829-.343l-1.833-1.834a16.646,16.646,0,0,1-4.145,1.723v2.587A1.173,1.173,0,0,1-548.875,40Zm1.562-14.14h-9.375a1.166,1.166,0,0,1-1.142-.911l11.69-6.215v5.954A1.174,1.174,0,0,1-547.312,25.86Z" transform="translate(852 4546)"/></g></svg>