<svg xmlns="http://www.w3.org/2000/svg" width="120" height="120" viewBox="0 0 120 120"><defs><style>.a{fill:#fcdcff;}.b{fill:#8400a0;}.c{fill:#bd13e1;}</style></defs><g transform="translate(-716 -3976)"><path class="a" d="M60,0h0a60,60,0,0,1,60,60v0a60,60,0,0,1-60,60H0a0,0,0,0,1,0,0V60A60,60,0,0,1,60,0Z" transform="translate(716 3976)"/><path class="b" d="M35.417,0H26.25a4.587,4.587,0,0,0-4.583,4.583V20.417A4.587,4.587,0,0,0,26.25,25h2.917v6.667A1.668,1.668,0,0,1,27.5,33.333H25v-.417A2.92,2.92,0,0,0,22.083,30H17.917A2.92,2.92,0,0,0,15,32.917v.417H12.5a1.668,1.668,0,0,1-1.667-1.667V25H13.75a4.587,4.587,0,0,0,4.583-4.583V4.583A4.587,4.587,0,0,0,13.75,0H4.583A4.587,4.587,0,0,0,0,4.583V20.417A4.587,4.587,0,0,0,4.583,25H7.5v6.667a5.006,5.006,0,0,0,5,5H15v.417A2.92,2.92,0,0,0,17.917,40h4.167A2.92,2.92,0,0,0,25,37.083v-.417h2.5a5.006,5.006,0,0,0,5-5V25h2.917A4.587,4.587,0,0,0,40,20.417V4.583A4.587,4.587,0,0,0,35.417,0ZM6.25,5h5.833a1.25,1.25,0,0,1,0,2.5H6.25a1.25,1.25,0,0,1,0-2.5Zm0,6.25h5.833a1.25,1.25,0,0,1,0,2.5H6.25a1.25,1.25,0,0,1,0-2.5ZM5,18.75A1.25,1.25,0,0,1,6.25,17.5h5.833a1.25,1.25,0,0,1,0,2.5H6.25A1.25,1.25,0,0,1,5,18.75ZM33.75,20H27.917a1.25,1.25,0,0,1,0-2.5H33.75a1.25,1.25,0,0,1,0,2.5Zm0-6.25H27.917a1.25,1.25,0,0,1,0-2.5H33.75a1.25,1.25,0,0,1,0,2.5Zm0-6.25H27.917a1.25,1.25,0,0,1,0-2.5H33.75a1.25,1.25,0,0,1,0,2.5Z" transform="translate(756 4016)"/><path class="c" d="M-569.153,25.628V25h-2.917a4.589,4.589,0,0,1-4.584-4.584V4.584A4.589,4.589,0,0,1-572.07,0h9.167a4.589,4.589,0,0,1,4.584,4.584v14.79l-10.832,6.254ZM-570.4,17.5a1.252,1.252,0,0,0-1.25,1.25A1.252,1.252,0,0,0-570.4,20h5.833a1.252,1.252,0,0,0,1.25-1.25,1.252,1.252,0,0,0-1.25-1.25Zm0-6.25a1.252,1.252,0,0,0-1.25,1.25,1.252,1.252,0,0,0,1.25,1.25h5.833a1.252,1.252,0,0,0,1.25-1.25,1.252,1.252,0,0,0-1.25-1.25Zm0-6.25a1.251,1.251,0,0,0-1.25,1.249A1.252,1.252,0,0,0-570.4,7.5h5.833a1.252,1.252,0,0,0,1.25-1.25A1.251,1.251,0,0,0-564.57,5Zm15.416,12.449V4.584A4.589,4.589,0,0,1-550.4,0h9.167a4.589,4.589,0,0,1,4.584,4.584v2.28l-7.6,4.386h-4.487a1.252,1.252,0,0,0-1.25,1.25,1.252,1.252,0,0,0,1.25,1.25h.157l-6.406,3.7ZM-548.736,5a1.251,1.251,0,0,0-1.25,1.249,1.252,1.252,0,0,0,1.25,1.25h5.833a1.252,1.252,0,0,0,1.25-1.25A1.251,1.251,0,0,0-542.9,5Z" transform="translate(1332.653 4016)"/></g></svg>