<svg xmlns="http://www.w3.org/2000/svg" viewBox="0 0 28.04 8.52"><defs><style>.cls-1{fill:#ffffff;}</style></defs><title>Asset 4</title><g id="Layer_2" data-name="Layer 2"><g id="Layer_1-2" data-name="Layer 1"><g id="SAKU_2021" data-name="SAKU 2021"><path class="cls-1" d="M0,7.63A1.61,1.61,0,0,1,.2,7a1.83,1.83,0,0,1,.39-.49,5.44,5.44,0,0,0,1.16.57A3.6,3.6,0,0,0,3,7.33,1.56,1.56,0,0,0,4,7a.93.93,0,0,0,.36-.74,1,1,0,0,0-.25-.67,1.92,1.92,0,0,0-.76-.53l-1.45-.6A3.49,3.49,0,0,1,.73,3.67a1.89,1.89,0,0,1-.45-1.3A2.23,2.23,0,0,1,.63,1.15a2.6,2.6,0,0,1,1-.84A3.18,3.18,0,0,1,3.05,0,5.29,5.29,0,0,1,4.5.2,6.29,6.29,0,0,1,5.66.64a1.54,1.54,0,0,1-.16.61,1.39,1.39,0,0,1-.36.5,5.66,5.66,0,0,0-1-.4,3.82,3.82,0,0,0-1.05-.17,1.43,1.43,0,0,0-1,.3,1,1,0,0,0-.34.72A.74.74,0,0,0,2,2.78a2.27,2.27,0,0,0,.68.42l1.44.59a3.94,3.94,0,0,1,.94.55,2.43,2.43,0,0,1,.63.77,2,2,0,0,1,.23,1,2.38,2.38,0,0,1-.33,1.25,2.28,2.28,0,0,1-1,.88,3.88,3.88,0,0,1-1.67.32A5.17,5.17,0,0,1,1.4,8.28,4.86,4.86,0,0,1,0,7.63Z"/><path class="cls-1" d="M9.26.16l.41,0h.84a3.09,3.09,0,0,1,.4.05l2.67,8.1a1.37,1.37,0,0,1-.39.13,2.3,2.3,0,0,1-.45,0,.76.76,0,0,1-.53-.16,1.22,1.22,0,0,1-.33-.62L10.68,3.8c-.11-.35-.22-.72-.34-1.13L10,1.55H10q-.06.28-.15.63l-.18.68c-.06.22-.12.41-.17.57L7.93,8.37l-.3,0H7.31a2.3,2.3,0,0,1-.37,0,2.09,2.09,0,0,1-.33-.07l-.05-.07ZM9.17,6.45H7.72l.45-1.16h3.75l.38,1.16H9.17Z"/><path class="cls-1" d="M14.82.16l.37,0h.71l.37,0v8.2l-.37,0h-.71l-.37,0Zm3.94.51a1.9,1.9,0,0,1,.31-.42.8.8,0,0,1,.51-.14l.41,0a3,3,0,0,1,.43,0l.09.11-1.72,3a2.36,2.36,0,0,1-.72.81,1.91,1.91,0,0,1-1.11.3H15.53V3.54l.66,0h.65a.5.5,0,0,0,.28-.07,1.54,1.54,0,0,0,.21-.28ZM20.84,8a.8.8,0,0,1-.41.33,1.37,1.37,0,0,1-.55.12.75.75,0,0,1-.6-.21A2.17,2.17,0,0,1,19,7.58l-.6-1.66A2.16,2.16,0,0,0,17.82,5,1.18,1.18,0,0,0,17,4.73l-.59,0-.89.06V3.88h2.14a2.37,2.37,0,0,1,1,.18,1.44,1.44,0,0,1,.6.52,2.84,2.84,0,0,1,.39.8l.62,1.67a3.78,3.78,0,0,0,.18.45,1.7,1.7,0,0,0,.18.28Z"/><path class="cls-1" d="M28,5.44a3.49,3.49,0,0,1-.38,1.69,2.5,2.5,0,0,1-1.07,1,4,4,0,0,1-3.28,0,2.55,2.55,0,0,1-1.07-1,3.49,3.49,0,0,1-.38-1.69V.18L21.94.1h.55a.83.83,0,0,1,.63.22,1,1,0,0,1,.2.7V5.45a2.15,2.15,0,0,0,.4,1.42,1.8,1.8,0,0,0,2.47,0,2.15,2.15,0,0,0,.41-1.42V.16l.35,0h.71l.38,0Z"/></g></g></g></svg>