<svg xmlns="http://www.w3.org/2000/svg" width="80" height="80" viewBox="0 0 80 80"><defs><style>.a{fill:#c9c5c5;}</style></defs><path class="a" d="M73.672,70.353A8.686,8.686,0,0,0,80,62.005c0-1.223-.364-3.44-3.513-8.544-1.617-2.621-3.211-4.77-3.278-4.86l-1.881-2.529L69.447,48.6c-.067.09-1.661,2.239-3.278,4.86-.525.852-.972,1.622-1.354,2.321V9.323H58.982V0H21.017V9.323H15.184v46.46c-.382-.7-.828-1.47-1.354-2.321-1.617-2.621-3.211-4.77-3.278-4.86L8.672,46.072,6.791,48.6c-.067.09-1.661,2.239-3.278,4.86C.364,58.566,0,60.782,0,62.005a8.685,8.685,0,0,0,6.328,8.347v4.96H0V80H80V75.313H73.672Zm-58.488,4.96H11.016v-4.96a8.685,8.685,0,0,0,4.169-2.63Zm15.493-6.341H25.99V62.3h4.688Zm0-14.062H25.99V48.242h4.688Zm0-14.062H25.99V34.18h4.688Zm0-14.062H25.99V20.117h4.688ZM42.344,68.971H37.656V62.3h4.688Zm0-14.062H37.656V48.242h4.688Zm0-14.062H37.656V34.18h4.688Zm0-14.062H37.656V20.117h4.688ZM54.01,68.971H49.323V62.3H54.01Zm0-14.062H49.323V48.242H54.01Zm0-14.062H49.323V34.18H54.01Zm0-14.062H49.323V20.117H54.01ZM68.984,75.313H64.816v-7.59a8.687,8.687,0,0,0,4.169,2.63Z" transform="translate(0)"/></svg>