<svg xmlns="http://www.w3.org/2000/svg" width="80" height="52.365" viewBox="0 0 80 52.365"><defs><style>.a{fill:#c9c5c5;}</style></defs><path class="a" d="M75.044,25.181A2.387,2.387,0,0,0,74.881,25l-2.8-2.706c2.325-.527,4.828-2.475,4.828-4.474,0-2.328-3.231-3.155-5.989-3.155-2.883,0-3.218,1.976-3.253,3.372l-7.233-6.974a10.208,10.208,0,0,0-6.34-2.6H25.909a10.212,10.212,0,0,0-6.338,2.6l-7.232,6.974c-.038-1.4-.372-3.372-3.253-3.372-2.761,0-5.991.826-5.991,3.155,0,2,2.5,3.946,4.83,4.474L5.122,25c-.064.06-.108.121-.163.183A15.7,15.7,0,0,0,0,35.949V46.2a9.352,9.352,0,0,0,2.567,6.43v3.976a4.288,4.288,0,0,0,4.34,4.221h5.248a4.284,4.284,0,0,0,4.338-4.221V55.59H63.509v1.017a4.283,4.283,0,0,0,4.34,4.221h5.246a4.285,4.285,0,0,0,4.338-4.221V52.631A9.344,9.344,0,0,0,80,46.2V35.949A15.686,15.686,0,0,0,75.044,25.181ZM22.227,14.161a7.233,7.233,0,0,1,3.682-1.491H54.094a7.233,7.233,0,0,1,3.682,1.491l9.485,9.193H12.744ZM3.254,34.4a4.5,4.5,0,0,1,4.415-4.573c2.438,0,10.4,4.676,10.4,7.2s-7.966,1.94-10.4,1.94A4.49,4.49,0,0,1,3.254,34.4Zm13.24,16.7H14.813L9.824,51.1a9.484,9.484,0,0,1-3.052-1.474,4.328,4.328,0,0,1-.826-.839,3.284,3.284,0,0,1-.464-.847,3.857,3.857,0,0,1,.661-3.365h8.513l5.676,6.515-3.839,0Zm35.748,0H27.761a4.626,4.626,0,0,1-4.624-4.622h33.73A4.624,4.624,0,0,1,52.243,51.1Zm1.074-7.777H26.686c-2.776,0-5.029-3.422-5.029-7.643H58.346C58.346,39.9,56.093,43.321,53.317,43.321Zm21.2,4.624a3.306,3.306,0,0,1-.465.846,4.236,4.236,0,0,1-.826.839A9.4,9.4,0,0,1,70.179,51.1L65.191,51.1H59.667l5.679-6.515h8.512A3.849,3.849,0,0,1,74.522,47.945Zm-2.188-8.98c-2.436,0-10.4.581-10.4-1.94s7.966-7.2,10.4-7.2a4.573,4.573,0,0,1,0,9.14Z" transform="translate(0 -8.463)"/></svg>