<svg xmlns="http://www.w3.org/2000/svg" width="80" height="82.655" viewBox="0 0 80 82.655"><defs><style>.a{fill:#c9c5c5;}</style></defs><g transform="translate(0 -0.001)"><path class="a" d="M64.615,74.962a7.692,7.692,0,1,1,7.693,7.693A7.7,7.7,0,0,1,64.615,74.962Zm-50.82,0a7.693,7.693,0,1,1,7.693,7.693A7.7,7.7,0,0,1,13.8,74.962ZM33.808,76.1c.034-.373.054-.751.054-1.133a12.32,12.32,0,0,0-.57-3.711H60.5a12.342,12.342,0,0,0-.569,3.711c0,.382.02.76.054,1.133Zm4.323-8.073A5.622,5.622,0,0,1,32.51,62.4v-.16a5.622,5.622,0,0,1,5.621-5.622H57.966a2.189,2.189,0,1,1,0,4.378H38.131v2.647H57.966a2.189,2.189,0,1,1,0,4.378ZM69.8,37.29H23.91V62.827h0a12.363,12.363,0,0,0-4.844,0v-6.07h-.21A18.855,18.855,0,0,1,1.847,29.763L13.771,4.844H2.422V0H23.91V32.445h4.55V17.674a10.1,10.1,0,0,1,4.726-8.58L34.9,8.009V2.78h4.844v5.23L41.46,9.093a10.1,10.1,0,0,1,4.726,8.581V32.446h4.142V19.555l5.428-3.535V11.638H60.6V16.02l5.428,3.535V32.446H69.8V24.181h4.844V62.812a12.355,12.355,0,0,0-4.844.031ZM38.131,53.822A5.621,5.621,0,0,1,32.51,48.2v-.16a5.621,5.621,0,0,1,5.621-5.622H57.966a2.189,2.189,0,1,1,0,4.378H38.131v2.647H57.966a2.189,2.189,0,1,1,0,4.378Z" transform="translate(0 0.001)"/></g></svg>