<svg xmlns="http://www.w3.org/2000/svg" width="80" height="80" viewBox="0 0 80 80"><defs><style>.a{fill:#c9c5c5;}</style></defs><g transform="translate(0)"><path class="a" d="M8.948,74.737c-2.683-2.2-4.8-3.944-3.385-6.056a47.03,47.03,0,0,0,4.477-8.718c1.538-3.687,2.868-6.871,6.729-9.125,1.76-1.026,3.372-1.924,4.887-2.734a9.218,9.218,0,0,1,4.355-1.072H42.2a5.152,5.152,0,0,1,.213,1.721,5.186,5.186,0,0,1-.307,1.028C38.111,52.152,29.592,57.2,29.592,57.2a.834.834,0,0,0,.425,1.552H42.746a4.687,4.687,0,0,0,3.315-1.373l7.6-7.6a9.375,9.375,0,0,1,6.629-2.746h7.3a1.262,1.262,0,0,1,.934,2.11L49.81,69.732a16.434,16.434,0,0,1-12.19,5.424H28.459a14.285,14.285,0,0,0-10.175,4.093A2.041,2.041,0,0,1,16.72,80C15.475,80,13.573,78.539,8.948,74.737ZM6.82,42.344A6.65,6.65,0,0,1,.111,36.9,11.334,11.334,0,0,1,0,35.344a2.362,2.362,0,0,1,2.344-2.376H77.656A2.364,2.364,0,0,1,80,35.347a11.306,11.306,0,0,1-.113,1.557,6.662,6.662,0,0,1-6.72,5.44Zm3.665-14.062C13.233,17.623,22.066,6.025,37.656,4.952V2.344a2.344,2.344,0,0,1,4.688,0V5.049A30.44,30.44,0,0,1,69.617,28.281Z" transform="translate(0)"/></g></svg>