<svg xmlns="http://www.w3.org/2000/svg" width="80" height="80" viewBox="0 0 80 80"><defs><style>.a{fill:#c9c5c5;}</style></defs><g transform="translate(0 0)"><path class="a" d="M8.889,80A8.915,8.915,0,0,1,0,71.111V8.889A8.915,8.915,0,0,1,8.889,0H71.111A8.915,8.915,0,0,1,80,8.889V71.111A8.915,8.915,0,0,1,71.111,80ZM22.222,62.222h8V45.778H41.333c6.667,0,9.778-1.333,12.444-3.556s4-5.778,4-10.222c0-4-.889-7.556-4-10.222-2.667-2.667-5.778-4-12.444-4H22.222Zm8-22.222V24H40.444q4.667,0,6.667,2.667c1.333,1.778,2.222,3.111,2.222,5.333,0,2.667-.889,4-2.222,5.778C45.778,39.111,44,40,40.889,40Z" transform="translate(0 0)"/></g></svg>