<svg xmlns="http://www.w3.org/2000/svg" width="80" height="61.806" viewBox="0 0 80 61.806"><defs><style>.a{fill:#c9c5c5;}</style></defs><g transform="translate(0 -58.136)"><path class="a" d="M9.035,61.806A9,9,0,0,1,.8,49.147a24.45,24.45,0,0,1,44.544,0A9,9,0,0,1,37.11,61.806Zm45.845-8.2L50.246,44l-.913,1.893A29.5,29.5,0,0,0,36.375,32.964,19.738,19.738,0,0,0,30.231,0H77.42A2.58,2.58,0,0,1,80,2.58V37.431a2.58,2.58,0,0,1-2.58,2.58H54.053l5.475,11.355a2.58,2.58,0,1,1-4.648,2.241ZM8.342,18.394A14.731,14.731,0,1,1,23.073,33.125,14.731,14.731,0,0,1,8.342,18.394Z" transform="translate(0 58.136)"/></g></svg>